<?xml version="1.0" encoding="UTF-8"?>
<svg id="Layer_1" data-name="Layer 1" xmlns="http://www.w3.org/2000/svg" viewBox="0 0 216.5 64.19">
  <defs>
    <style>
      .cls-1 {
        fill: none;
        stroke: #231f20;
        stroke-width: .48px;
      }

      .cls-2 {
        fill: #231f20;
      }

      .cls-2, .cls-3 {
        stroke-width: 0px;
      }

      .cls-3 {
        fill: #c40d3c;
      }
    </style>
  </defs>
  <g>
    <path class="cls-2" d="M29.48,29.1s-.09,0-.14,0c2.46,5.82,5.66,12.9,6.95,17.37,1.24-.2,2.41-.33,3.65-.33s2.41.13,3.65.33c-2.13-4.13-6.55-14.08-11.2-24.69-1.68.86-3.33,1.76-4.94,2.69l2.04,4.63Z"/>
    <path class="cls-2" d="M66.25,41.49c-.18.83-.32,1.58-.4,2.9-2.65,1.58-5.74,2.33-8.89,2.33-8.32,0-13.16-5.45-13.16-12.83,0-6.92,4.3-12.66,13.73-12.66,4.34,0,7.24,1.18,8.86,1.9-.54,1.47-.68,1.94-.86,3.59h-.36c-.97-2.04-4.12-3.94-7.78-3.94-5.66,0-9.43,4.16-9.43,11.08,0,7.46,4.63,11.15,9.72,11.15,1.61,0,5.34-.36,8.14-3.69l.43.18Z"/>
    <path class="cls-2" d="M89.27,41.49c-.18.83-.32,1.58-.4,2.9-2.65,1.58-5.74,2.33-8.89,2.33-8.32,0-13.16-5.45-13.16-12.83,0-6.92,4.3-12.66,13.73-12.66,4.34,0,7.24,1.18,8.85,1.9-.54,1.47-.68,1.94-.86,3.59h-.36c-.97-2.04-4.12-3.94-7.78-3.94-5.66,0-9.43,4.16-9.43,11.08,0,7.46,4.62,11.15,9.72,11.15,1.62,0,5.34-.36,8.14-3.69l.43.18Z"/>
    <path class="cls-2" d="M22.86,0h-1.31C14.53,15.6,7.37,31,0,46.47c.9-.2,1.72-.33,2.55-.33s1.65.13,2.55.33c1.17-4.16,3.79-10.91,6.68-17.71.01,0,.02,0,.03,0l8.78-19.83,5.21,11.5c1.57-1.04,3.18-2.03,4.83-2.98-2.95-6.75-5.28-11.78-7.77-17.45"/>
    <path class="cls-3" d="M58.62,9.86c-10.05,1.82-19.35,5.29-27.65,10.03-1.65.94-3.26,1.93-4.83,2.98-5.96,3.96-11.32,8.6-15.96,13.79,5.15-4.09,10.82-8.04,16.94-11.56,1.62-.93,3.27-1.83,4.95-2.69,8.4-4.31,17.55-7.71,27.31-9.47,19.09-3.45,37.79-.2,53.99,5.04-15.93-8.36-35.1-11.67-54.75-8.11"/>
    <path class="cls-2" d="M108.96,21.98c-1.57,3.63-3.17,7.22-4.82,10.82.2-.05.39-.08.57-.08s.37.03.57.08c.26-.97.85-2.54,1.5-4.12.63-.02,1.25-.03,1.88-.03.68,0,1.35.02,2.02.03.56,1.37,1.29,3.06,1.59,4.12.28-.05.54-.08.82-.08s.54.03.82.08c-.82-1.65-3.13-7.25-4.63-10.82h-.29ZM110.46,27.97c-.57.02-1.16.03-1.73.03-.54,0-1.12-.03-1.66-.03l1.68-3.91,1.71,3.91Z"/>
    <path class="cls-2" d="M115.09,31.32c.21.42.88,1.06,1.74,1.06.77,0,1.49-.48,1.49-1.39,0-1.91-3.63-.79-3.63-3.39,0-1.34.92-2.32,2.55-2.32.76,0,1.23.28,1.71.43-.17.29-.34.86-.37,1.09h-.18c-.15-.49-.66-.95-1.36-.95-.6,0-1.31.38-1.31,1.29,0,2,3.63.77,3.63,3.37,0,1.17-1.06,2.43-2.77,2.43-.94,0-1.55-.26-1.98-.51.12-.26.29-.82.29-1.12h.19Z"/>
    <path class="cls-2" d="M120.46,31.32c.21.42.88,1.06,1.74,1.06.77,0,1.49-.48,1.49-1.39,0-1.91-3.63-.79-3.63-3.39,0-1.34.92-2.32,2.55-2.32.76,0,1.23.28,1.71.43-.17.29-.34.86-.37,1.09h-.18c-.15-.49-.66-.95-1.35-.95-.6,0-1.31.38-1.31,1.29,0,2,3.63.77,3.63,3.37,0,1.17-1.06,2.43-2.77,2.43-.94,0-1.55-.26-1.98-.51.12-.26.29-.82.29-1.12h.19Z"/>
    <path class="cls-2" d="M125.28,29.12c0,2.8,1.96,3.83,3.74,3.83s3.74-1.03,3.74-3.83-1.96-3.83-3.74-3.83-3.74,1.03-3.74,3.83M126.64,29.12c0-1.72.57-3.34,2.39-3.34s2.39,1.62,2.39,3.34-.57,3.34-2.39,3.34-2.39-1.62-2.39-3.34"/>
    <path class="cls-2" d="M137.26,25.29c1.12,0,2.09.32,2.48.68-.14.31-.26.65-.34,1.02h-.12c-.29-.52-1-1.2-1.97-1.2-1.86,0-2.62,1.43-2.62,3.32,0,2.11.96,3.2,2.66,3.2.82,0,1.77-.48,2.31-1.09l.08.05c-.05.25-.08.51-.09.75-.62.49-1.62.94-2.57.94-1.79,0-3.74-1.08-3.74-3.83s1.96-3.83,3.93-3.83"/>
    <path class="cls-2" d="M140.88,29.92c0,.93-.03,2-.12,2.88.23-.04.46-.08.69-.08s.46.03.69.08c-.09-.88-.12-1.95-.12-2.88v-1.6c0-.92.03-2,.12-2.88-.23.05-.46.08-.69.08s-.46-.03-.69-.08c.09.88.12,1.96.12,2.88v1.6ZM140.66,22.76c0,.43.35.79.79.79s.79-.36.79-.79-.36-.79-.79-.79-.79.36-.79.79"/>
    <path class="cls-2" d="M143.52,26.98h.17c.35-.66,1.12-1.05,1.94-1.05,1.23,0,1.69.91,1.69,1.94,0,.6-.08.72-2.31,1.08-1.34.22-2.17.88-2.17,2.11,0,1.17,1.02,1.89,2.05,1.89s1.68-.38,2.42-1.12c.06.52.4.95,1.06.95.4,0,.77-.12.99-.22v-.34c-.11.06-.23.06-.32.06-.6,0-.6-.63-.6-1.14,0-1.29.06-2.43.06-3.59,0-1.37-1.02-2.28-2.49-2.28-.82,0-1.56.2-2.48.89v.8ZM147.27,31.23c-.36.57-1.03,1.08-1.82,1.08-.68,0-1.34-.49-1.34-1.46,0-1.68,2.15-1.57,3.22-1.93l-.06,2.31Z"/>
    <path class="cls-2" d="M151.47,23.38h.08c-.06.77-.09,1.52-.12,2.28.22,0,.93-.02,1.63-.05-.02.11-.02.22-.02.33s0,.21.02.32c-.54-.03-1.26-.03-1.63-.03-.03.15-.11,2.57-.11,3.91,0,1.15.03,2.32,1.25,2.32.17,0,.49-.05.69-.11v.37c-.35.12-.8.23-1.19.23-1.28,0-1.89-.72-1.89-1.92,0-1.12.09-2.51.11-4.8-.31,0-.65,0-1.05.03.01-.12.03-.23.03-.36,0-.11-.02-.2-.03-.31.46.03.8.05,1.02.05-.02-.4-.03-1.06-.06-1.73l1.28-.54Z"/>
    <path class="cls-2" d="M154.93,21.98c.43,0,.79.36.79.79s-.35.79-.79.79-.78-.36-.78-.79.35-.79.78-.79M154.36,28.32c0-.92-.03-2-.12-2.88.23.05.46.08.69.08s.46-.03.69-.08c-.09.88-.12,1.96-.12,2.88v1.6c0,.92.03,2,.12,2.88-.23-.04-.46-.08-.69-.08s-.46.03-.69.08c.09-.88.12-1.95.12-2.88v-1.6Z"/>
    <path class="cls-2" d="M156.38,29.12c0,2.8,1.96,3.83,3.74,3.83s3.74-1.03,3.74-3.83-1.96-3.83-3.74-3.83-3.74,1.03-3.74,3.83M157.73,29.12c0-1.72.57-3.34,2.39-3.34s2.39,1.62,2.39,3.34-.57,3.34-2.39,3.34-2.39-1.62-2.39-3.34"/>
    <path class="cls-2" d="M168.14,26.09c-1.43,0-2.08.93-2.08,2.53v1.31c0,.92.03,2,.12,2.88-.23-.04-.46-.08-.69-.08s-.46.03-.69.08c.09-.88.12-1.96.12-2.88v-1.6c0-.92-.03-2-.12-2.88.23.05.46.08.69.08.15,0,.39-.03.62-.08-.03.42-.05.82-.05,1.23h.03c.57-.88,1.35-1.39,2.46-1.39s2.46.56,2.46,2.68c0,.88-.06,1.8-.06,2.85,0,.68,0,1.32.03,1.99-.23-.04-.43-.08-.65-.08s-.42.03-.63.08c.03-1.12.11-2.25.11-3.43v-.94c0-1.51-.66-2.34-1.68-2.34"/>
    <path class="cls-2" d="M177.01,29.12c0,2.8,1.95,3.83,3.74,3.83s3.74-1.03,3.74-3.83-1.96-3.83-3.74-3.83-3.74,1.03-3.74,3.83M178.36,29.12c0-1.72.57-3.34,2.39-3.34s2.39,1.62,2.39,3.34-.57,3.34-2.39,3.34-2.39-1.62-2.39-3.34"/>
    <path class="cls-2" d="M188.85,22.42c-.25-.15-.54-.23-.85-.23-.91,0-1.26.74-1.26,1.54,0,.37.09,1.17.18,1.8.52,0,1.06-.02,1.59-.02-.02.11-.03.22-.03.31,0,.11.01.22.03.31-.52-.01-1.06-.05-1.59-.05,0,2.23,0,4.45.06,6.71-.22-.05-.45-.08-.66-.08s-.45.03-.68.08c.14-2.26.14-4.46.14-6.71-.37,0-.74.03-1.11.05.02-.09.03-.2.03-.31,0-.09-.02-.2-.03-.31.37,0,.76.02,1.11.02,0-1.2.52-2.91,1.34-3.73.37-.37.98-.71,1.57-.71.09,0,.22.01.31.05-.02.42-.06.83-.06,1.23l-.09.05Z"/>
    <path class="cls-2" d="M113.35,44.48c-.39.31-1.66.88-3.2.88-3.25,0-5.62-2.02-5.62-5.51s2.37-5.51,5.77-5.51c1.32,0,2.51.32,3.34.71-.15.28-.26.88-.33,1.2l-.09.03c-.43-.48-1.48-1.37-2.92-1.37-2.42,0-4.26,1.52-4.26,4.94s1.85,4.94,4.26,4.94c1.46,0,2.54-.83,3.12-1.28l.06.06-.14.91Z"/>
    <path class="cls-2" d="M114.23,41.48c0,2.8,1.96,3.83,3.74,3.83s3.74-1.03,3.74-3.83-1.96-3.83-3.74-3.83-3.74,1.03-3.74,3.83M115.58,41.48c0-1.72.57-3.34,2.38-3.34s2.39,1.62,2.39,3.34-.57,3.34-2.39,3.34-2.38-1.62-2.38-3.34"/>
    <path class="cls-2" d="M126.33,39.06c-.11-.12-.45-.25-.76-.25-.99,0-1.57.94-1.57,2.14,0,2.68,0,3.5.06,4.2-.2-.04-.41-.08-.61-.08-.22,0-.41.03-.65.08.06-.75.06-1.95.06-3.68v-.49c0-.8,0-1.86-.06-3.18.23.04.43.08.65.08.2,0,.42-.03.61-.08-.08.74-.08,1.11-.08,1.49h.03c.59-1.09,1.32-1.65,2.03-1.65.18,0,.29.01.49.09-.11.25-.11.83-.11,1.25l-.11.08Z"/>
    <path class="cls-2" d="M127.45,44.77c0,1.42-.03,3.4-.12,4.43.23-.05.46-.08.69-.08s.46.03.69.08c-.09-1.03-.12-3.02-.12-4.43v-.97h.03c.48.97,1.28,1.51,2.42,1.51,1.62,0,3.33-1.26,3.33-3.88s-1.57-3.79-3.14-3.79-2.29,1.01-2.6,1.66h-.03c0-.49.05-.97.12-1.51-.23.04-.46.08-.69.08s-.46-.03-.69-.08c.09,1.08.12,3.06.12,4.48v2.49ZM133.01,41.41c0,1.86-.69,3.32-2.17,3.32s-2.25-1.09-2.25-3.2c0-1.77.63-3.25,2.29-3.25,1,0,2.13.66,2.13,3.12"/>
    <path class="cls-2" d="M135.09,41.48c0,2.8,1.96,3.83,3.74,3.83s3.74-1.03,3.74-3.83-1.95-3.83-3.74-3.83-3.74,1.03-3.74,3.83M136.44,41.48c0-1.72.57-3.34,2.38-3.34s2.39,1.62,2.39,3.34-.57,3.34-2.39,3.34-2.38-1.62-2.38-3.34"/>
    <path class="cls-2" d="M146.99,38.98c0-.41,0-1,.11-1.25-.2-.08-.31-.09-.49-.09-.71,0-1.45.55-2.03,1.66h-.03c0-.4,0-.77.08-1.51-.2.04-.42.08-.62.08-.22,0-.41-.03-.65-.08.06,1.32.06,2.38.06,3.18v.49c0,1.72,0,2.92-.06,3.68.23-.05.43-.08.65-.08.2,0,.41.03.62.08-.06-.71-.06-1.53-.06-4.2,0-1.2.59-2.14,1.57-2.14.31,0,.65.12.76.25l.11-.08Z"/>
    <path class="cls-2" d="M147.84,39.33h.17c.35-.66,1.12-1.05,1.94-1.05,1.23,0,1.69.91,1.69,1.94,0,.6-.08.72-2.31,1.08-1.34.22-2.17.88-2.17,2.11,0,1.17,1.02,1.89,2.05,1.89s1.68-.38,2.42-1.12c.06.52.4.95,1.06.95.4,0,.77-.12.99-.21v-.34c-.11.06-.23.06-.32.06-.6,0-.6-.63-.6-1.14,0-1.29.06-2.43.06-3.59,0-1.37-1.02-2.28-2.49-2.28-.82,0-1.56.2-2.48.89v.8ZM151.58,43.58c-.35.57-1.03,1.08-1.82,1.08-.68,0-1.34-.49-1.34-1.46,0-1.68,2.16-1.57,3.22-1.93l-.06,2.31Z"/>
    <path class="cls-2" d="M155.78,35.73h.08c-.06.77-.09,1.52-.12,2.28.22,0,.93-.02,1.63-.05-.02.11-.02.21-.02.32s0,.22.02.32c-.54-.03-1.26-.03-1.63-.03-.03.15-.11,2.57-.11,3.91,0,1.16.03,2.32,1.25,2.32.17,0,.49-.04.69-.11v.37c-.35.12-.8.23-1.18.23-1.28,0-1.89-.72-1.89-1.92,0-1.12.09-2.51.11-4.8-.31,0-.65,0-1.05.03.02-.12.03-.23.03-.36,0-.11-.01-.2-.03-.31.46.03.8.04,1.02.04-.02-.4-.03-1.06-.06-1.72l1.28-.54Z"/>
    <path class="cls-2" d="M157.64,41.69c0,2.05,1.53,3.62,3.74,3.62.96,0,1.96-.44,2.57-.94l.09-.76-.08-.04c-.54.61-1.49,1.09-2.31,1.09-1.71,0-2.66-1.25-2.66-2.85,0-.14,0-.28.02-.43.68-.01,1.34-.04,2.02-.04,1.09,0,2.18.03,3.29.04.01-.2.03-.4.03-.6,0-1.71-1.03-3.14-3.19-3.14-2.26,0-3.53,1.55-3.53,4.05M161.2,38.13c1.6,0,1.89,1.57,1.89,2.66-.65.01-1.37.05-2.05.05s-1.37-.03-2-.05c.08-1.11.65-2.66,2.16-2.66"/>
    <path class="cls-2" d="M178.55,44.48c-.39.31-1.66.88-3.2.88-3.25,0-5.62-2.02-5.62-5.51s2.37-5.51,5.77-5.51c1.32,0,2.51.32,3.34.71-.15.28-.26.88-.32,1.2l-.09.03c-.43-.48-1.48-1.37-2.92-1.37-2.42,0-4.26,1.52-4.26,4.94s1.85,4.94,4.26,4.94c1.46,0,2.54-.83,3.12-1.28l.06.06-.14.91Z"/>
    <path class="cls-2" d="M179.27,41.48c0,2.8,1.95,3.83,3.74,3.83s3.74-1.03,3.74-3.83-1.95-3.83-3.74-3.83-3.74,1.03-3.74,3.83M180.63,41.48c0-1.72.57-3.34,2.38-3.34s2.39,1.62,2.39,3.34-.57,3.34-2.39,3.34-2.38-1.62-2.38-3.34"/>
    <path class="cls-2" d="M187.89,40.24c0-.72-.02-1.59-.03-2.45.22.04.45.08.65.08s.42-.03.63-.08c-.09,1.2-.15,2.77-.15,4.28,0,1.06.22,1.57.48,1.86.29.32.72.57,1.32.57.86,0,1.45-.43,1.71-.99.31-.66.32-.79.32-3.2,0-.83,0-1.79-.03-2.52.22.04.41.08.65.08s.43-.03.63-.08c-.09,1.6-.11,3.05-.11,4.68,0,.91.02,1.82.06,2.68-.2-.04-.4-.08-.6-.08s-.4.03-.6.08c.03-.45.03-.89.03-1.32h-.03c-.52.95-1.43,1.48-2.4,1.48-1.6,0-2.57-.92-2.57-2.52,0-1.08.05-1.79.05-2.54"/>
    <path class="cls-2" d="M198.52,38.44c-1.43,0-2.08.92-2.08,2.52v1.31c0,.92.03,2,.12,2.88-.23-.05-.46-.08-.69-.08s-.46.03-.69.08c.09-.88.12-1.95.12-2.88v-1.6c0-.92-.03-2-.12-2.88.23.04.46.08.69.08.15,0,.38-.03.61-.08-.03.42-.04.82-.04,1.23h.03c.57-.88,1.36-1.39,2.46-1.39s2.46.56,2.46,2.68c0,.88-.06,1.8-.06,2.85,0,.68,0,1.32.03,1.98-.23-.05-.43-.08-.65-.08s-.42.03-.63.08c.03-1.12.11-2.25.11-3.43v-.94c0-1.51-.66-2.34-1.68-2.34"/>
    <path class="cls-2" d="M202.58,43.68c.22.42.88,1.06,1.74,1.06.77,0,1.49-.48,1.49-1.39,0-1.91-3.63-.79-3.63-3.39,0-1.34.92-2.32,2.56-2.32.76,0,1.23.28,1.71.43-.17.29-.34.86-.37,1.09h-.18c-.15-.49-.66-.96-1.35-.96-.6,0-1.31.39-1.31,1.29,0,2,3.63.77,3.63,3.37,0,1.17-1.06,2.43-2.77,2.43-.94,0-1.55-.26-1.99-.51.12-.26.29-.82.29-1.12h.18Z"/>
    <path class="cls-2" d="M207.4,41.69c0,2.05,1.52,3.62,3.74,3.62.95,0,1.95-.44,2.57-.94l.09-.76-.08-.04c-.54.61-1.49,1.09-2.31,1.09-1.71,0-2.66-1.25-2.66-2.85,0-.14,0-.28.02-.43.68-.01,1.34-.04,2.02-.04,1.09,0,2.19.03,3.29.04.01-.2.03-.4.03-.6,0-1.71-1.03-3.14-3.19-3.14-2.26,0-3.53,1.55-3.53,4.05M210.96,38.13c1.6,0,1.89,1.57,1.89,2.66-.65.01-1.37.05-2.05.05s-1.37-.03-2-.05c.08-1.11.65-2.66,2.16-2.66"/>
    <path class="cls-2" d="M215.2,37.93c0-1.41-.03-3.4-.12-4.43.23.05.46.08.69.08s.46-.03.69-.08c-.09,1.03-.12,3.02-.12,4.43v2.79c0,1.42.03,3.4.12,4.43-.23-.04-.46-.08-.69-.08s-.46.03-.69.08c.09-1.03.12-3.02.12-4.43v-2.79Z"/>
    <path class="cls-3" d="M121.42,57.6c-.02-.5-.04-.99-.07-1.49.13.02.27.03.43.04.15.01.33.02.52.02s.37,0,.52-.02c.15-.01.29-.02.43-.04-.03.5-.05,1-.07,1.49-.01.5-.02,1.07-.02,1.7v1.57c0,.44,0,.86,0,1.27,0,.41,0,.76.02,1.06.44,0,.88-.01,1.32-.03.44-.02.88-.06,1.33-.12-.01.08-.03.16-.03.23,0,.07-.01.16-.01.29s0,.22.01.29c0,.07.02.13.03.17-.21,0-.46-.01-.77-.02-.3,0-.72,0-1.25,0h-1.83c-.17,0-.3,0-.39,0-.09,0-.16,0-.22.02.03-.48.05-.96.07-1.46.01-.5.02-1.06.02-1.7v-1.57c0-.64,0-1.21-.02-1.7M115.54,57.6c-.01-.5-.03-.99-.06-1.49.35,0,.69.02,1.03.04s.68.02,1.03.02c.57,0,1.07,0,1.52-.02.44-.01.74-.02.89-.04-.03.12-.05.29-.05.49,0,.12,0,.22.01.29,0,.07.02.15.03.23-.22-.02-.47-.03-.73-.05-.27-.02-.52-.03-.77-.05-.25-.01-.48-.03-.68-.03-.2,0-.34-.01-.43-.01-.03.42-.05.84-.05,1.26,0,.42,0,.84,0,1.26.5,0,.95-.02,1.36-.03.4-.02.83-.04,1.26-.06-.02.13-.04.23-.05.3,0,.07-.01.14-.01.22,0,.06,0,.12.02.19.01.07.02.16.04.28-.88-.07-1.75-.1-2.62-.1,0,.25,0,.49,0,.74s0,.49,0,.74c0,.5.01.98.03,1.44.44,0,.88-.01,1.32-.03.44-.02.88-.06,1.33-.12-.02.08-.03.16-.03.23,0,.07-.01.16-.01.29s0,.22.01.29c0,.07.02.13.03.17-.21,0-.46-.01-.77-.02-.3,0-.72,0-1.25,0h-1.83c-.17,0-.31,0-.39,0-.09,0-.16,0-.23.02.03-.48.05-.96.06-1.46.01-.5.02-1.06.02-1.7v-1.57c0-.64,0-1.21-.02-1.7M113.75,62.4c-.27-.65-.55-1.33-.83-2.05-.28-.72-.57-1.45-.85-2.2-.28-.75-.54-1.45-.79-2.1-.08.01-.15.03-.22.04-.07.01-.14.02-.22.02s-.15,0-.22-.02c-.07-.01-.14-.02-.22-.04-.17.44-.36.91-.56,1.42-.2.51-.41,1.02-.62,1.55-.21.52-.42,1.04-.64,1.55-.21.51-.41.99-.59,1.44s-.35.85-.51,1.2c-.15.35-.28.63-.37.83.11-.02.21-.02.3-.02h.55c.09,0,.18,0,.27.02.11-.38.23-.76.36-1.15.13-.39.27-.79.43-1.18.2,0,.4-.01.6-.02.2,0,.4,0,.6,0,.25,0,.49,0,.74,0,.25,0,.49,0,.74.02.15.39.29.79.42,1.18.13.39.26.78.38,1.15.16-.02.33-.02.49-.02h.98c.17,0,.34,0,.53.02-.22-.45-.47-.99-.74-1.64M110.92,59.64c.17.45.33.91.5,1.38h-2.11c.17-.47.34-.93.52-1.38.18-.45.37-.91.57-1.37.18.46.36.92.53,1.37M102.63,60.4v.47c0,.64,0,1.21.02,1.7.01.5.04.98.07,1.46-.13-.02-.27-.02-.43-.02h-1.04c-.15,0-.3,0-.43.02.03-.48.05-.96.07-1.46.02-.5.02-1.06.02-1.7v-1.57c0-.64,0-1.21-.02-1.7-.01-.5-.04-.99-.07-1.49.13.02.27.03.43.04.15.01.33.02.52.02.21,0,.44,0,.71-.03.27-.02.6-.03.99-.03.29,0,.54,0,.75.02.21.01.39.04.54.07.15.03.28.07.39.12.11.05.22.11.32.18.23.17.41.38.55.63.14.25.2.55.2.9,0,.56-.15,1.02-.46,1.37-.31.35-.75.6-1.33.75.37.65.77,1.31,1.19,1.96.42.65.85,1.29,1.27,1.93-.18-.02-.35-.02-.52-.02h-1.04c-.17,0-.35,0-.52.02l-2.07-3.64h-.1ZM104.35,57.47c-.07-.2-.17-.35-.32-.46-.14-.1-.33-.17-.55-.2-.23-.03-.5-.05-.81-.05-.02,1.05-.03,2.09-.03,3.14.05,0,.09.01.13.02.04,0,.08,0,.12,0,.51,0,.9-.14,1.17-.41.27-.27.4-.69.4-1.24,0-.34-.04-.61-.1-.81M97.15,56.67c-.35,0-.64.1-.87.31-.22.21-.33.45-.33.73s.09.52.26.7c.17.18.39.34.65.49.26.15.54.29.84.42.3.13.58.3.84.5.26.2.48.44.65.72.17.28.26.64.26,1.08,0,.39-.07.74-.22,1.06-.15.32-.35.59-.62.82-.27.23-.59.4-.96.52-.37.12-.79.18-1.25.18-.42,0-.79-.04-1.11-.13-.33-.09-.58-.2-.74-.33.08-.27.14-.52.2-.74.05-.22.1-.47.14-.73h.22c.03.17.09.33.17.48.08.15.19.28.32.4.13.12.29.21.47.27.18.07.39.1.62.1.46,0,.8-.12,1.02-.35.22-.23.33-.51.33-.83,0-.29-.08-.53-.25-.72-.17-.18-.38-.35-.64-.49-.25-.14-.53-.28-.83-.42-.3-.13-.58-.3-.83-.49-.25-.19-.47-.43-.64-.71-.17-.28-.25-.64-.25-1.08,0-.4.07-.75.21-1.06.14-.31.33-.56.57-.77.24-.21.51-.37.82-.47.31-.11.64-.16.99-.16.41,0,.78.05,1.09.15.31.1.58.24.8.42-.07.18-.13.35-.18.51-.05.17-.11.38-.19.63h-.17c-.25-.66-.71-.99-1.4-.99M91.32,57.6c-.02-.5-.04-.99-.07-1.49.13.02.27.03.43.04.15.01.33.02.52.02s.37,0,.52-.02c.15-.01.3-.02.43-.04-.03.5-.06,1-.07,1.49-.02.5-.02,1.07-.02,1.7v1.57c0,.64,0,1.21.02,1.7.01.5.04.98.07,1.46-.13-.02-.28-.02-.43-.02h-1.04c-.15,0-.3,0-.43.02.03-.48.05-.96.07-1.46.02-.5.02-1.06.02-1.7v-1.57c0-.64,0-1.21-.02-1.7"/>
  </g>
  <path class="cls-1" d="M0,60.61h85.94M130.49,60.61h86.01"/>
</svg>