<?xml version="1.0" encoding="UTF-8"?>
<svg id="SM_Event_Invitation_Grid" data-name="SM Event Invitation Grid" xmlns="http://www.w3.org/2000/svg" viewBox="0 0 966.03 313">
  <defs>
    <style>
      .cls-1 {
        fill: #4f5a90;
        stroke-width: 0px;
      }
    </style>
  </defs>
  <g id="ois5BQ">
    <g>
      <path class="cls-1" d="M313,0c-.12,1.82-.36,3.63-.36,5.45-.02,100.7-.02,201.4,0,302.1,0,1.82.23,3.63.36,5.45H115c-1.35-9.54-3.1-19.04-3.94-28.62-.92-10.42-1.12-20.91-1.29-31.38-.03-1.64,1.76-3.31,2.7-4.97,2.57-4.53,5.97-8.8,7.51-13.66,2.1-6.61,2.83-13.66,4.04-20.55,1.19-6.83,1.13-6.88,8.16-6.86,13.06.04,24.34-4.39,34.33-13.31-2.2-3.76-4.32-7.39-7.19-12.31,6.81,0,12.42-.45,17.93.11,7.09.72,11.22-2.29,14.19-8.41,6.74-13.84,7.97-28.74,8.91-43.72.66-10.47,1.18-20.95,2.06-31.4.12-1.46,1.93-3.99,2.93-3.98,13.82.18,27.64.61,41.44,1.3,1.63.08,3.16,2.07,3.84,2.55-3.69,2.18-6.67,3.95-9.65,5.71,1.96,1.54,3.92,3.08,6.74,5.28-.98,4.36-1.53,10.1-3.58,15.25-7.12,17.92-14.69,35.67-22.23,53.42-2.29,5.39-3.7,11.59-11.51,13.06,13.94,15.71,31.19,18.09,49.47,16.73,11.7-.87,20.67-7,27.31-15.13-2.66-3.7-5.05-6.52-6.84-9.69-1.44-2.55-1.98-5.59-3.22-8.27-3.64-7.81-7.61-15.46-11.1-23.33-3.34-7.53-5.76-15.51-9.51-22.81-2.99-5.82-3.76-11.72-3.14-17.86.19-1.89,2.12-4.35,3.9-5.19,4.69-2.23,6.27-5.76,5.77-10.51-.59-5.56-3.43-8.8-9.1-9.74-4.58-.76-9.29-.69-13.91-1.18-10.86-1.17-21.71-2.46-33.25-3.78.79-5.9,1.51-10.95,2.13-16.03,1.01-8.34-2.58-15.71-8.48-20.24-4.01-3.09-3.83-5.43-3.89-9.24-.06-4.2-.45-8.63-1.87-12.53-1.41-3.87-4.6-4.03-7.5-1-3.93,4.1-4.57,8.95-3.25,14.39.35,1.44-.32,3.79-1.38,4.82-5.57,5.4-9.08,11.32-7.3,19.48,1.3,5.94,2.25,11.96,3.36,17.97-2.09.48-4.57.84-6.9,1.64-9.4,3.25-18.96,4.44-28.96,4.11-6.21-.21-12.57,1.16-18.7,2.54-5,1.13-6.83,5.38-7.36,10.21-.47,4.21.58,7.94,4.63,9.59,5.44,2.22,6.57,6.12,5.51,11.23-.57,2.76-1.23,5.53-2.19,8.17-2.95,8.11-3.37,8.27-11.36,5.72-1.74-.56-3.51-1.07-5.19-1.79-5.74-2.46-11.17-2.67-16.48,1.3-1.28.95-3.38.81-5.11,1.17-.28-1.87-.77-3.74-.79-5.62-.02-1.98.59-3.97.61-5.95.03-3.92,2.07-6.53,5.6-7.33,7.38-1.67,9.21-6.79,9.27-13.36.05-5.74.28-11.45,4.48-14.3-1.23-6.79-2.4-12.56-3.3-18.38-.83-5.36-3.35-9.48-7.45-13.08-2.72-2.39-4.98-5.58-6.61-8.84-1.83-3.66-3.83-6.05-8.26-5.72-7.14.54-14.32.63-21.43,1.42-3.7.41-7.66,1.26-10.83,3.09-4.87,2.81-9.45,6.3-13.59,10.13-2.54,2.35-4.72,5.61-5.83,8.88-2.03,5.96-3.84,12.16-4.46,18.38-.58,5.83.53,11.82.85,17.74.13,2.51.81,5.26.05,7.49-2,5.91-4.99,11.48-6.94,17.4-1.51,4.57-.91,10.1-7.34,11.56-.91.21-1.51,1.7-2.3,2.55C5.45,140.25,2.72,143.12,0,146,0,97.33,0,48.67,0,0c104.33,0,208.67,0,313,0Z"/>
      <path class="cls-1" d="M20,313c10.72-6.83,17.03-16.9,21.26-28.6,2.71-7.49,5.79-14.84,8.64-22.28,1.63-4.26,4.58-6.86,9.13-7.46,6.41-.84,12.85-1.49,19.25-2.41,4.02-.57,5.77,1.43,4.22,4.72-4.51,9.54-9.36,18.94-14.47,28.18-6.92,12.52-19.86,18.72-30.03,27.84h-18Z"/>
      <path class="cls-1" d="M0,157c1.07-1.03,2.1-2.1,3.22-3.07,4.22-3.64,8.39-2.36,9.37,3.16,1.25,7.03,2.13,14.13,3.04,21.22.19,1.44.31,3.3-.4,4.39-4.74,7.25-3.91,15.58-5.17,23.55-1.69,10.65-4.48,21.12-6.27,31.76-.93,5.53-.5,11.28-1.09,16.88C2.04,261.29.92,267.63,0,274c0-39,0-78,0-117Z"/>
      <path class="cls-1" d="M85,313c3.06-13.06,6.19-26.11,9.14-39.2,1.31-5.83,2.09-11.78,3.47-17.58.34-1.41,2.11-2.48,3.22-3.71,1.29,1.38,2.8,2.61,3.77,4.19.52.84.26,2.3.07,3.43-2.78,16.49-5.62,32.97-8.42,49.46-.19,1.12-.17,2.28-.24,3.42h-11Z"/>
      <path class="cls-1" d="M68,313c9.03-16.33,13.6-34.21,18.21-52.09.8-3.11,2.73-5.93,4.13-8.88.85.2,1.7.4,2.56.59-.19,3.59.03,7.27-.65,10.76-3.25,16.56-8.29,32.52-16.7,47.28-.38.66-.37,1.55-.54,2.33h-7Z"/>
      <path class="cls-1" d="M54,313c4.43-4.33,8.86-8.66,13.28-13,.33.21.66.42.98.63-2.76,4.12-5.51,8.24-8.27,12.36h-6Z"/>
      <path class="cls-1" d="M654.46,121.02c17.31,0,34.62-.03,51.93,0,8.83.02,12.38,3.61,12.4,12.45.03,15.65.04,31.29,0,46.94-.02,7.95-3.64,11.71-11.55,11.72-35.12.06-70.24.05-105.36,0-7.51-.01-11.54-4.25-11.55-11.88-.03-15.65-.03-31.29,0-46.94.02-8.32,3.89-12.25,12.2-12.27,17.31-.05,34.62-.02,51.93-.02ZM646.25,142.64c5.77,7.26,7.01,14.81,3.35,23.01-.78,1.74-2.33,4.34,1.11,5.27,3.05.83,4.29-.65,4.96-3.76,1.22-5.68,2.97-11.26,4.72-16.81.94-2.98,3.06-4.68,6.46-4.25,3.51.44,4.07,3,4.18,5.81.1,2.33.08,4.67.04,7-.15,7.52-2.27,9.17-9.57,7.48-.57-.13-1.18-.08-1.77-.11-.35.35-.69.69-1.04,1.04.97,1.28,1.68,3.29,2.94,3.73,6.11,2.14,13.42-1.19,15.46-6.68,3.12-8.37.77-19.06-4.92-21.67-1.61-.74-3.68-1.39-5.28-1.01-3.83.93-7.51,2.51-11.57,3.94-1.38-2.81-3.63-5.5-9.1-2.98ZM633.97,163.61c-2.2-6.45-4.05-11.89-5.89-17.32-1.69-4.98-3.76-5.83-8.52-3.86,2.3,6.39,4.33,12.87,6.99,19.08,1.87,4.38.99,6.66-3.72,7.1-3.78.35-3.75,2.35-2.75,5.11,19-3.71,25.15-14.06,24.36-25.96-.43-6.45-1.91-7.6-8.34-5.17,2.47,6.89,3.04,13.6-2.12,21.03ZM677.68,132.4c.41,1.27.85,2.17.97,3.11.42,3.38-.48,8.1,1.4,9.81,2,1.82,6.61.65,10.04,1.08,4.45.56,6.39,4.41,4.15,8.52-1.17,2.14-3.15,3.83-4.67,5.8-1.51,1.96-3.18,3.88-4.19,6.08-.41.89.41,3.11,1.3,3.62.96.56,3.36.35,3.94-.42,3.39-4.55,6.57-9.28,9.57-14.11,2.85-4.59,2.13-10.24-1.9-12.39-2.49-1.33-5.67-1.77-8.57-1.87-3.25-.11-4.31-1.24-4.33-4.45-.05-5.68-.93-6.16-7.71-4.78ZM617.1,180.33c-.3-3.2-.76-5.96-.79-8.71-.1-7.99,0-15.98-.04-23.96-.03-6.17-1.51-7.17-7.21-5.26.23,2.82.62,5.57.65,8.32.09,8.15-.02,16.31.05,24.46.05,5.86,1.43,6.77,7.35,5.16Z"/>
      <path class="cls-1" d="M415.82,140.67c-12.65,0-25.3-.13-37.94.08-3.75.06-4.85-1.1-4.82-4.81.16-19.14.05-38.27.11-57.41.01-4.81-.68-9.13-4.53-12.68-2.69-2.48-1.79-5.07,1.74-5.49,20.01-2.41,40.06-4.06,60.08-.23,16.48,3.15,25.01,13.5,25.18,30.39.12,11.81-.12,23.63.15,35.44.07,3.2,1.1,6.5,2.26,9.54,1.46,3.79.88,5.11-3.3,5.16-6.49.07-12.98.01-19.47.01-6.49,0-12.98,0-19.47,0ZM399.95,99.61c0,6.65.06,13.3-.03,19.94-.04,2.85.95,4.36,4,4.33,6.81-.07,13.63-.03,20.44-.02,2.58,0,3.95-.95,3.91-3.84-.12-9.47.22-18.96-.17-28.41-.39-9.35-4.76-14.23-13.93-16.15-3.04-.63-6.25-.49-9.39-.53-3.47-.05-5.02,1.59-4.91,5.24.2,6.48.06,12.96.07,19.44Z"/>
      <path class="cls-1" d="M373.26,253.87c0-4.77,0-8.58,0-12.39,0-16.98.17-33.97-.16-50.95-.07-3.41-1.96-6.81-3.2-10.15-.58-1.56-1.64-2.94-2.48-4.41,1.81-.9,3.57-2.49,5.43-2.6,13.77-.84,27.56-1.8,41.34-1.86,6.72-.03,13.64,1.12,20.13,2.92,14.05,3.9,21.16,13.66,21.36,28.3.16,11.65-.17,23.32.17,34.96.11,3.85,1.28,7.8,2.62,11.46,1.15,3.14.46,4.42-2.69,4.65-.99.07-2,.04-3,.04-24.48,0-48.95.01-73.43.02-1.79,0-3.59,0-6.09,0ZM400.16,212.65c0,6.66.02,13.32-.01,19.98-.01,2.63.52,4.54,3.81,4.49,6.99-.11,13.99-.08,20.98-.01,2.64.02,3.42-1.25,3.4-3.7-.1-9.66.14-19.32-.18-28.97-.27-8.23-4.97-14.01-12.43-15.38-3.7-.68-7.58-.31-11.37-.51-3.36-.18-4.29,1.6-4.24,4.62.1,6.49.03,12.99.04,19.48Z"/>
      <path class="cls-1" d="M697.98,113.62c1.28-6.42,2.55-12.23,3.56-18.09.33-1.9.57-4.19-.17-5.85-3.92-8.76-8.07-17.42-12.36-26-1.52-3.04-.76-4.57,2.39-4.62,7.49-.12,15.03-.41,22.46.33,2.55.25,5.38,2.93,7.09,5.24,2.1,2.84,3.14,6.45,4.97,10.45,1.33-1.67,2.34-2.69,3.05-3.88,4.54-7.61,11.33-11.37,20.04-12.26,21.65-2.2,35.39,6.99,37.08,27.73.88,10.81.4,22.07-1.69,32.68-2.37,12.02-10.89,19.94-23.43,21.46-7.83.94-15.88.15-23.83.1-2.89-.02-4.09-1.49-3.96-4.45.18-3.99.02-8,.06-12,.03-3.04,1.07-3.92,3.99-2.18,8.54,5.1,18.56,1.2,19.79-8.52,1.1-8.67.76-17.61.12-26.37-.44-6.09-4.47-9.18-10.21-9.8-6.42-.7-11.15,1.45-13.21,7.36-2.39,6.87-3.89,14.07-5.62,21.16-1.3,5.33-2.34,10.72-3.76,17.35-6.31-10.52-16.23-9.83-26.37-9.87Z"/>
      <path class="cls-1" d="M733.22,234.57c4.66,1.46,7.88,3.25,11.13,3.32,7.12.16,12.19-4.1,12.81-11.4.72-8.41.65-16.96.13-25.39-.39-6.24-4.29-9.42-10.41-10.23-6.03-.79-11.32,1.66-13.19,7.46-2.54,7.88-4.21,16.05-6.11,24.13-1.82,7.77-3.49,15.57-5.14,23.37-.52,2.47.05,6.44-1.3,7.2-2.33,1.31-5.76.74-8.74.79-4.33.08-8.66.04-12.99,0-5.8-.04-7.08-1.59-5.86-7.32,2.12-9.91,4.52-19.77,6.43-29.72,1.07-5.57,1.4-11.28,2.13-17.52.79,0,2.76-.07,4.73.01,7.5.31,12.9-2.84,17.09-9.11,8.3-12.4,18.86-20.22,35.12-18.16,13.99,1.77,24.29,9.26,26.21,23.14,1.42,10.26,1.71,20.98.41,31.24-2.38,18.87-13.12,28.02-32.12,29.05-5.27.29-10.61-.47-15.91-.93-2.99-.26-4.74-1.67-4.53-5.19.29-4.87.07-9.77.07-14.75Z"/>
      <path class="cls-1" d="M793.46,243.63c7.92-.42,14.95-.79,22.82-1.21-1.78-5.89-3.16-10.63-4.64-15.35-3.87-12.38-7.42-24.87-11.83-37.05-1.74-4.8-5.41-8.89-8.17-13.33-.47-.76-1.3-1.92-1.04-2.37.48-.86,1.63-1.87,2.51-1.88,7.82-.1,15.67-.37,23.46.19,5.44.39,7.5,5.18,8.92,9.68,2.66,8.4,4.93,16.92,7.41,25.37,2.38,8.09,4.82,16.15,7.23,24.21,6.63-1.83,10.46-6.6,10.76-14.33.38-9.64.28-19.32.01-28.97-.16-5.59-2.66-10.25-8.98-14.01,2.51-1.08,3.9-2.17,5.31-2.2,7.49-.17,14.99-.06,22.48-.08,3.93-.01,6.78,2.16,7.22,5.66,2.5,19.7,5.38,39.59-8.85,56.7-6.57,7.91-15.22,12.85-24.65,16.41-14.23,5.37-28.9,8.89-44.12,10.12-4.25.34-6.28-.7-5.94-5.33.29-4.08.06-8.2.06-12.21Z"/>
      <path class="cls-1" d="M793.44,130.34c6.77-.35,12.56-.68,18.35-.95,3.3-.15,4.37-1.52,3.31-4.84-5.22-16.31-10.07-32.75-15.63-48.94-1.49-4.33-5.04-7.95-7.59-11.93-.56-.88-1.28-1.93-1.21-2.84.05-.62,1.34-1.66,2.07-1.65,8.31.04,16.67-.2,24.92.58,5.21.5,6.67,5.6,8.01,9.89,2.54,8.1,4.79,16.28,7.19,24.42,2.39,8.09,4.81,16.16,7.32,24.58,6.32-1.57,9.71-5.82,10-11.01.65-11.92.58-23.92-.03-35.85-.15-2.94-3.21-5.98-5.46-8.5-2.22-2.49-1.17-4,1.18-4.06,8.65-.24,17.33-.31,25.95.31,1.9.14,4.88,3.24,5.14,5.26,2.36,18.19,4.93,36.61-6.24,53.14-7.52,11.13-18.78,17.61-31.28,21.12-13.22,3.71-26.86,5.92-40.34,8.7-4.38.9-6.04-1.12-5.72-5.52.29-3.94.06-7.92.06-11.89Z"/>
      <path class="cls-1" d="M593.38,199.07h25.28c3.88,26.04-3.41,46.07-29.27,53.43-17.19,4.9-34.64,4.32-51.82-.23-15.49-4.1-23.6-15.44-24.16-33.19-.31-9.82-.12-19.66-.21-29.49-.04-4.75-.71-9.28-4.51-12.79-.63-.58-1.01-2.17-.66-2.88.39-.79,1.73-1.54,2.68-1.56,7-.12,14.01-.35,20.99.07,4.77.29,6.81,4.04,6.99,8.36.38,9.15.37,18.31.54,27.47.08,4.16-.02,8.34.39,12.47,1.02,10.22,6.35,16.8,16.39,17.83,7.62.78,15.67.25,23.16-1.39,9.48-2.07,14.09-9.31,14.19-19.19.07-6.44.01-12.88.01-18.94Z"/>
      <path class="cls-1" d="M585.12,121.42c-.48,4.86-1.26,9.85-1.37,14.85-.07,3.07-.86,4.57-4.04,4.91-14.16,1.54-28.26,1.66-42.09-2.17-15.34-4.26-22.62-13.06-24.17-32.04-.84-10.26.09-20.66-.6-30.94-.28-4.17-2.26-8.46-4.34-12.22-1.7-3.08-1.07-4.61,1.91-4.71,7.15-.24,14.34-.35,21.46.23,5.35.44,6.75,4.95,6.84,9.53.21,10.48.05,20.98.27,31.46.08,3.96.33,8.05,1.36,11.84,2.36,8.76,8.76,13.1,20.27,13.84,8.71.56,17.3-.24,24.5-4.6Z"/>
      <path class="cls-1" d="M886.06,174.47c2.55-.98,4.1-2.05,5.69-2.1,6.33-.2,12.66-.13,18.99-.07,6,.05,9.36,2.85,9.96,8.87.49,4.96.45,9.98.47,14.97.05,13.5-.26,27,.16,40.49.14,4.59,2.23,9.1,3.02,13.71.18,1.02-1.34,3.33-2.13,3.36-7.99.25-15.99.2-23.99.1-3.58-.05-4.26-2.77-4.32-5.58-.12-5.5-.02-11-.07-16.49-.14-14.49-.38-28.98-.43-43.47-.02-5.35-1.71-9.75-7.36-13.78Z"/>
      <path class="cls-1" d="M885.81,61.34c2.71-1.13,4.15-2.21,5.62-2.26,6.49-.19,12.99-.2,19.48-.04,6.19.15,9.26,2.8,9.82,9,.54,5.95.5,11.97.53,17.95.07,12.82-.21,25.65.15,38.46.12,4.13,1.57,8.3,2.89,12.29.89,2.69.31,3.91-2.38,3.93-7.82.07-15.65.11-23.47-.04-4.16-.08-4.52-3.37-4.55-6.45-.1-8.82.01-17.65-.07-26.47-.1-11.15-.34-22.29-.45-33.44-.05-4.97-1.63-9.13-7.56-12.94Z"/>
      <path class="cls-1" d="M591.55,116.42c.58-6.38,1.47-13.33,1.76-20.3.3-7.47.46-15.01-.2-22.44-.29-3.32-2.73-6.45-4.23-9.65-.55-1.19-1.19-2.34-1.79-3.51,1.1-.52,2.19-1.46,3.3-1.48,6.82-.09,13.64.03,20.46.07,4.58.03,7.62,2.53,7.71,6.83.29,14.44.13,28.9,0,43.35-.03,3.37-1.91,4.64-5.52,4.62-7.68-.05-15.64-1.49-21.49,2.5Z"/>
      <path class="cls-1" d="M938.22,230.6c0-5.6,0-10.03,0-14.47,0-8.97.44-17.98-.2-26.91-.29-4-2.74-7.84-4.23-11.75-.44-1.14-1.63-2.78-1.26-3.28.72-.97,2.3-1.79,3.54-1.82,6.98-.16,13.96-.06,20.94-.07,4,0,6.66,1.89,7.7,5.73.56,2.06.93,4.22.99,6.35.14,5.15-.41,10.35.14,15.44,1.24,11.4-3.8,18.69-13.79,23.36-4.33,2.03-8.45,4.49-13.84,7.4Z"/>
      <path class="cls-1" d="M470.76,117.94c-.17-3.51-.33-5.27-.34-7.02-.03-11.63-.1-23.27.01-34.9.05-4.71-.87-8.85-4.52-12.16-.68-.62-1.32-2.25-.99-2.82.55-.93,1.91-1.9,2.94-1.92,7.47-.11,14.96-.12,22.43.12,4.5.15,7.18,3,7.31,7.33.3,9.62.46,19.27.04,28.89-.12,2.67-1.82,6.15-3.93,7.68-7.01,5.09-14.53,9.45-22.96,14.8Z"/>
      <path class="cls-1" d="M938.22,117.8c0-5,0-8.42,0-11.84,0-9.81-.01-19.61,0-29.42,0-4.81-.87-9.22-4.67-12.66-.72-.65-1.45-2.28-1.12-2.86.52-.93,1.93-1.89,2.97-1.9,7.64-.09,15.32-.34,22.91.37,2.28.21,5.99,3.2,6.13,5.13.78,10.54.95,21.15.63,31.71-.08,2.6-2.14,5.99-4.33,7.53-6.84,4.79-14.18,8.87-22.52,13.95Z"/>
      <path class="cls-1" d="M471.18,230.83c-.16-3.32-.31-5.1-.32-6.88-.02-10.81,0-21.62,0-32.43,0-5.42-.6-10.5-4.94-14.6-2.4-2.27-1.2-4.45,1.95-4.53,7.64-.2,15.3-.25,22.94.05,4.24.17,6.76,3.13,6.88,7.22.29,9.79.62,19.63-.04,29.38-.21,3.17-2.76,7.07-5.42,9.01-6.24,4.54-13.2,8.1-21.05,12.77Z"/>
      <path class="cls-1" d="M554.3,230.94c0-5.91,0-10.35,0-14.79,0-8.64.04-17.29-.06-25.93-.06-5.08-.82-9.93-5.14-13.49-.66-.55-1.08-2.19-.74-2.93.35-.76,1.75-1.44,2.71-1.45,6.31-.11,12.64-.25,18.94.05,4.68.22,7.48,3.48,7.62,7.8.39,12.76.48,25.55.08,38.31-.08,2.46-2.4,6.08-4.59,7-5.67,2.37-11.85,3.53-18.82,5.44Z"/>
      <path class="cls-1" d="M554.15,117.47c0-2.95,0-4.73,0-6.51,0-11.31.03-22.62-.03-33.93-.03-5.1-.91-9.91-5.16-13.48-.66-.56-1.13-2.13-.81-2.85.35-.79,1.71-1.58,2.63-1.59,6.48-.08,12.98-.15,19.45.17,4.5.22,7.16,3.4,7.28,7.53.37,12.79.51,25.6.06,38.37-.09,2.56-2.69,6.26-5.05,7.25-5.53,2.31-11.62,3.29-18.37,5.04Z"/>
      <path class="cls-1" d="M650.25,44.58c2.25,2.06,3.47,3.17,4.93,4.5-.74,1.15-1.45,2.21-2.11,3.29-3.53,5.78-5.24,11.79-2.52,18.45.75,1.84,1.29,3.78,1.74,5.72,1.24,5.3-.58,9.65-4.64,11.36-5.09,2.15-10.77.55-13.68-3.86-4.41-6.68-3.74-18.26,2.34-25.73,4.02-4.94,9.08-9.03,13.93-13.74Z"/>
      <path class="cls-1" d="M657.82,256.9c6.18-7.64,7.15-15.75,3.39-24.8-2.73-6.57-.48-12.12,4.68-13.77,6.82-2.18,12.73.95,14.76,7.96,2.8,9.73-.19,18.04-6.73,25.26-2.22,2.45-4.9,4.48-7.4,6.67-3.1,2.72-6.03,3.42-8.7-1.33Z"/>
      <path class="cls-1" d="M629.42,257.95c7.13-8.47,8.38-16.44,4.53-25.6-2.96-7.04-.22-12.95,5.43-14.17,7.46-1.61,13.14,2.37,14.37,10,2.44,15.12-6.01,24.57-17.61,31.78-1.18.74-3.99-1.14-6.71-2.02Z"/>
      <path class="cls-1" d="M677.71,44.78c2.05,1.79,3.39,2.97,4.86,4.25-1.41,2.31-2.83,4.33-3.93,6.51-2.61,5.18-2.83,10.48-.65,15.93.85,2.12,1.57,4.42,1.73,6.68.42,5.93-1.77,9.24-6.38,10.37-5.34,1.31-10.88-1.05-12.78-6.16-3.3-8.87-2.45-17.6,3.66-24.95,3.87-4.65,8.86-8.37,13.48-12.63Z"/>
      <path class="cls-1" d="M128.37,96.36c3.74-.83,6.35-1.87,8.96-1.9,5.31-.06,10.65.82,15.94.57,6.91-.32,13.78-1.36,20.67-2.11,1.59-.17,3.18-.39,5.51-.69-.33,2.72-.3,4.86-.89,6.82-4.54,15.28-9.26,30.52-13.78,45.81-.98,3.3-2.53,3.56-5.84,3.2-9.86-1.07-16.97-4.06-21.01-14.66-3.79-9.92-6.5-18.96-2.26-29.16.45-1.09-.75-3.09-1.59-4.41-.44-.69-1.8-.74-2.67-1.2-.67-.36-1.24-.91-3.03-2.27Z"/>
      <path class="cls-1" d="M145.22,149.61c12.21.59,21.89,5.45,32.12,12.97-4-19.43-1.4-36.72,4.77-53.96,1.41.91,2.47,1.58,4.66,2.98,1.94-5.75,3.57-11.04,5.57-16.19.58-1.48,2.22-2.55,3.38-3.81.94,1.53,2.73,3.08,2.69,4.58-.65,24.49-1.88,48.91-9.28,72.57-1.14,3.63-2.59,4.7-6.26,4.46-7.31-.47-14.66-.63-21.98-.51-3.54.06-5.61-1.23-7-4.32-2.65-5.89-5.41-11.74-8.66-18.78Z"/>
      <path class="cls-1" d="M224.1,188.06c8.68-20.26,17.18-40.1,25.92-60.49,8.56,20.51,16.74,40.12,25.24,60.49h-51.16Z"/>
      <path class="cls-1" d="M24.19,187.91c-1.57,3.61-3.14,7.23-4.96,11.4,1.09-8.71,2.12-16.91,3.16-25.18.24,1.83.46,3.6.83,6.44,7.89-4.73,4.18-12.59,6.81-18.92,15.54,11.79,32.18,19.46,53.15,11.05-12.72,17.64-24.25,34.81-44.58,43.5,1.8-3.54,3.7-7.04,5.37-10.64,2.66-5.73,5.24-11.51,7.66-17.34.46-1.1.05-2.56.04-3.85-1.37.55-3.31.71-4.01,1.73-4.37,6.28-8.25,12.92-12.75,19.1-2.46,3.37-5.78,6.12-8.83,9.03-.41.39-1.51.05-2.78.05,1.09-8.74,2.14-17.2,3.2-25.65-.77-.24-1.54-.48-2.31-.72Z"/>
      <path class="cls-1" d="M56.16,96.71c16.61-1.24,28.74-11.56,42.25-20.13,1.28,2.14,2.27,3.79,2.67,4.45-1.73,3.6-3.03,6.47-4.51,9.26-.34.64-1.34.89-1.93,1.43-1.45,1.33-2.85,2.73-4.27,4.11,1.7.72,3.4,1.43,5.43,2.29,1.97,6.06,1.02,7.48-5.77,7.83-6.43.33-12.86.65-19.29.97l-.89,1.7c1.96,1.57,3.73,3.51,5.91,4.66,6.36,3.33,6.76,3.91,5.55,10.85-.6,3.44-1.02,6.92-1.55,10.37-.78,5.05,1.2,8.03,6.39,8.69.76.1,1.49.44,2.24.67.16.55.33,1.1.49,1.65-3.46,1.4-6.85,3.74-10.4,4.03-9.44.77-18.99,1.25-28.42.63-4.44-.29-8.69-3.37-13.03-5.18.14-.58.28-1.15.42-1.73,1.67,0,3.36.14,5.01-.03,4.08-.41,8.17-.83,12.22-1.48,4.54-.73,8.68-.67,12.81,2.09,1.77,1.18,4.74.83,7.13.66.58-.04,1-2.14,1.5-3.3-1.06-.45-2.14-.86-3.18-1.36-1.42-.69-3.33-1.1-4.12-2.25-2.9-4.25-5.43-8.76-7.43-12.06,1.92-5.98,3.58-11.12,5.42-16.87-3.25-2.97-6.96-6.38-10.68-9.79,0-.71.01-1.43.02-2.14Z"/>
      <path class="cls-1" d="M100.29,133.27c4.45,1.63,6.1,4.59,5.13,8.44-3.24,12.86-6.3,25.8-10.33,38.42-2.34,7.33-6.15,14.24-9.75,21.1-6.57,12.55-17.3,20.45-30.17,25.63-9.1,3.66-18.35,6.98-27.42,10.7-2.79,1.14-5.24,3.1-8.05,4.81-.3-.99-.83-2.72-1.48-4.87-1.74.83-3.13,1.49-4.53,2.15-.29-.43-.59-.85-.88-1.28,2.96-1.93,5.71-4.38,8.93-5.67,5.85-2.33,12.02-3.87,17.99-5.93,10-3.44,18.64-9.33,25.23-17.35,6.86-8.35,12.46-17.73,18.61-26.66.47-.68.79-1.52,1.38-2.07,10.3-9.65,11.99-23.04,15.2-35.67.91-3.56.14-7.54.14-11.76Z"/>
      <path class="cls-1" d="M73,245.92c7.79-16.46,15.28-32.3,23.02-48.66,4.34,2.27,8.24,4.3,12.7,6.63-8.9,16.91-14.36,35.92-35.72,42.03Z"/>
      <path class="cls-1" d="M32.06,248.59c.35-4.67,2.48-6.99,6.03-8.44,19.45-8,37.24-18.38,51-35.15-5.88,10.3-11.29,20.92-17.9,30.74-2.43,3.62-7.4,6.1-11.73,7.75-7.21,2.74-14.33,6.54-22.54,5.44-1.45-.19-2.93-.2-4.86-.33Z"/>
      <path class="cls-1" d="M187.24,45.93c1.54-.48,3.19-1.57,4.62-1.33,6.72,1.14,12.3,7.48,12.77,15.32.41,6.83,1.73,14.18-5.22,19.64,10.01,5.16,20.03,7.21,30.67,7.06,6.96-.1,13.94.22,20.89.69,3.57.24,6.45,2.18,6.79,6.09.26,3.01,1.35,6.62-2.99,8.56,2.33-9.28.25-12.04-9.18-12.16-3.81-.05-7.63.39-11.43.73-12.6,1.13-24.85-.51-37.51-4.69,1.09-5.08,2.17-10.18,3.46-16.21-4.22.42-8,.8-11.78,1.18-.13-.39-.26-.78-.39-1.17,2.34-.84,4.7-1.62,7.02-2.53,2.23-.88,4.4-1.89,6.45-3.58-5.77-4.09-10.97,2.23-16.47.9-.17-.49-.34-.98-.51-1.47,5.25-1.82,10.49-3.64,15.74-5.46-.15-.62-.31-1.24-.46-1.86-6.09-2.61-11.3,3.66-17.59,1.83,3.12-1.28,6.36-2.33,9.3-3.93,1.93-1.05,5.12-3.46,4.84-4.26-1.05-3.01-3.89-3.02-6.66-1.79-.42.19-.97.07-1.46.1-.3-.55-.6-1.11-.9-1.66Z"/>
      <path class="cls-1" d="M88.71,154.02c-9.81,7.95-17.63,19.78-33.51,16.68-15.75-3.07-25.33-12.61-30.9-27.55,2.29,1.33,4.75,2.44,6.84,4.03,4.62,3.53,8.95,7.44,13.6,10.93,7.51,5.64,17.61,7.65,26.93,4.79-4.13-1.84-7.04-3.13-10.49-4.67,9.51-1.45,18.53-2.83,27.55-4.2Z"/>
      <path class="cls-1" d="M103.02,189.1c7.14-16.39,13.79-31.66,20.87-47.91,2.71,8.45,1.34,15.97-.45,23.21-1.82,7.37-4.6,14.53-7.29,21.65-.5,1.32-2.45,2.67-3.92,2.92-2.71.47-5.56.13-9.2.13Z"/>
      <path class="cls-1" d="M124.47,99.99c-4.18-2.5-4.79-7.42-.76-9.65,3.4-1.88,7.48-3.93,11.13-3.71,15.33.95,30.09-1.64,44.83-5.24,1.45-.35,3.27.84,4.93,1.32-1.06,1.35-1.92,3.6-3.22,3.89-6.91,1.57-13.89,3.22-20.93,3.76-8.6.66-17.28.26-25.92.3-9.43.05-10.15.71-10.04,9.33Z"/>
      <path class="cls-1" d="M56.31,92.69c4.84-2.9,6.4-5.86,4.34-8.91-1.82-2.69-5.2-2.8-8.71-.11.59,1.22,1.19,2.5,2.02,4.23-2.75.96-5.3,1.85-9.25,3.23,2.31-3.05,3.69-4.86,5.06-6.68-.29-.38-.57-.76-.86-1.14-1.74.65-3.5,1.24-5.2,1.97-1.82.78-3.58,1.68-5.61,2.64,6.16-7.98,33.01-13.7,42.35-9.56-5.08,9.41-14.63,11.73-24.14,14.33Z"/>
      <path class="cls-1" d="M79.87,69.2c6.3-.62,12.61-1.25,20.12-1.99-4.42,4.85-24.44,6.99-36.31,4.88,8.43-7.43,18.53-10.48,28.65-13.42.59-.17,2.23.95,2.18,1.25-.17.99-.7,2.39-1.47,2.71-2.74,1.14-5.65,1.87-8.49,2.8-1.66.55-3.3,1.18-4.95,1.78l.26,1.98Z"/>
      <path class="cls-1" d="M115.2,205.94c-2.5,9.53-4.52,19.22-7.66,28.53-1.93,5.71-6.84,9.14-13.16,10.23,3.47-6.84,6.89-13.46,10.19-20.14,3.14-6.36,3.82-13.92,8.2-19.68.81.35,1.63.71,2.44,1.06Z"/>
      <path class="cls-1" d="M45.02,256.62c-7.05,12.6-13.54,25.57-21.47,37.59-2.37,3.59-8.56,5.39-13.34,6.37-3.12.64-5.67-2.65-5.89-6.85,16.52,1.96,23.08-10.12,30.19-21.11,3.48-5.38,6.22-11.24,9.29-16.88.41.29.81.58,1.22.87Z"/>
      <path class="cls-1" d="M147.45,170.66c-4.58-1.17-9.17-2.34-13.75-3.5.04-.29.09-.58.13-.87,2.17-.16,4.35-.31,8.12-.58-6.57-5.86-12.75-10.7-11.16-19.72,5.05.17,8.67,1.78,10.54,6.71,2.1,5.54,4.57,10.94,6.89,16.4-.26.52-.51,1.04-.77,1.57Z"/>
      <path class="cls-1" d="M154.59,188.71h-25.62c0-1.98.1-3.58-.02-5.16-.28-3.6,1.41-4.74,4.78-4.2,5.06.81,10.13,1.53,15.21,2.23,3.61.5,5.69,2.31,5.65,7.13Z"/>
      <path class="cls-1" d="M158.95,193.53c-8.48,8.57-29.75,10.64-36.35,2.91,12.43-1,24.14-1.93,36.35-2.91Z"/>
      <path class="cls-1" d="M101.43,178.41c3.25-13.11,6.95-28.01,10.65-42.9,6.45,1.48,6.94,2.41,4.56,7.87-5.37,12.3-10.69,24.62-15.21,35.03Z"/>
      <path class="cls-1" d="M52.15,57.46c6.2-10.37,20.47-16.91,29.28-13.62-6.9,4.5-13.39,8.73-19.79,12.9-1.93-4.87-2.76-4.94-9.49.72Z"/>
      <path class="cls-1" d="M120.02,206.67c2.37,13.62-4.79,33.59-12.04,36.77,3.81-11.63,7.71-23.55,12.04-36.77Z"/>
      <path class="cls-1" d="M278.12,194.26c-8.91,7.25-25.37,8.78-34.06,2.69,11.85-.94,22.44-1.77,34.06-2.69Z"/>
      <path class="cls-1" d="M38.92,119.31c-2.88,4.29-5.75,8.58-8.63,12.87-.65-.42-1.29-.84-1.94-1.27-1.2-6.94,7.32-7.56,8.91-12.69.55.36,1.11.72,1.66,1.09Z"/>
      <path class="cls-1" d="M20.96,268.35c-4.39,3.04-8.78,6.07-13.77,9.53-.37-5.18,1.29-6.4,12.69-10.83.36.43.72.87,1.08,1.3Z"/>
      <path class="cls-1" d="M134.73,140.26c-7.52-1.63-9.09-6.06-4.65-11.53,1.69,4.19,3.17,7.86,4.65,11.53Z"/>
      <path class="cls-1" d="M74,60.56c1.42-6.81,4.79-8.7,12.68-6.83-3.94,2.13-7.89,4.25-12.68,6.83Z"/>
      <path class="cls-1" d="M44.18,112.63c6.48,4.68,3.27,11.34-3.68,16.73,3.7-4.77,8.61-9.21,3.68-16.73Z"/>
    </g>
  </g>
</svg>