<?xml version="1.0" encoding="UTF-8"?>
<svg id="SM_Event_Invitation_Grid" data-name="SM Event Invitation Grid" xmlns="http://www.w3.org/2000/svg" viewBox="0 0 1168.58 469.14">
  <defs>
    <style>
      .cls-1 {
        fill: #1f3689;
        stroke-width: 0px;
      }
    </style>
  </defs>
  <g id="yh9L03.tif">
    <path class="cls-1" d="M909.54,0v6.06c0,74.03-.03,148.05.09,222.08,0,4.03-1.22,6.6-4.26,9.19-5.88,5-11.29,10.54-17.57,16.49V.1h-259.46v212.89c-6.86,0-13.09.11-19.3-.13-.91-.03-2.2-1.62-2.51-2.72-.44-1.52-.15-3.27-.15-4.91,0-66.11,0-132.22,0-198.33V.11h-259.37v212.67h-21.63V.09H65.76v5.72c0,77.32.02,154.65-.07,231.97,0,3.55-.53,7.23-1.55,10.64C43.42,317.75,22.59,387.06,1.78,456.38c-.6,2.01-1.09,4.07-1.78,6.67,2.11.09,3.7.23,5.29.23,15.84.02,31.69-.13,47.53.11,3.91.06,5.41-1.34,6.46-4.9,8.58-29.19,17.32-58.34,26.08-87.49.69-2.3.56-5.33,4.58-5.28,3.56.04,5.93.54,7.75,4.28,14.42,29.6,29.17,59.04,43.65,88.61,1.67,3.4,3.51,4.81,7.46,4.77,19.97-.22,39.94-.1,59.91-.11,1.44,0,2.88-.15,5.03-.27-15.55-32.45-30.85-64.41-46.43-96.92h106.43c-9.78,32.46-19.42,64.47-29.28,97.2,5.72,0,10.64,0,15.57,0,14.36,0,28.72-.11,43.08.08,3.54.05,5.1-1,6.13-4.52,8.57-29.2,17.45-58.3,26-87.5,1.16-3.95,2.66-5.41,6.99-5.41,48.03.1,96.05-.04,144.08-.12,1.94,0,3.88,0,6.58,0-9.43,32.77-18.65,64.78-28,97.27,16.37,0,32.19.04,48-.02,5.25-.02,11.84,1.55,15.36-.99,3.27-2.36,3.33-9.22,4.71-14.12,7.22-25.65,14.47-51.29,21.53-76.98,1.01-3.69,2.27-5.57,6.57-5.26,6.24.45,12.55.4,18.8.02,4.57-.28,5.63,1.68,5.6,5.72-.08,11.37.11,22.75.14,34.12.05,17.31.06,34.62.11,51.93,0,1.62.14,3.24.24,5.27,1.86.12,3.44.3,5.03.31,14.69.02,29.38-.08,44.07.08,3.32.04,5.26-.92,7.1-3.85,18.76-29.86,37.75-59.57,56.54-89.41,1.89-3.01,3.92-4.23,7.51-4.17,11.68.23,23.36.08,35.84.08-6.97,32.6-13.79,64.52-20.71,96.88h62.86c2.33-10.97,4.74-22.16,7.1-33.36,4.13-19.64,8.32-39.26,12.26-58.93.73-3.67,2.28-4.74,5.91-4.66,10.37.23,20.75.08,31.35.08.41,6.73.64,13.09,1.2,19.42,3.66,40.84,26.74,68.06,66.65,77.6,11.47,2.74,23.39,3.59,35.1,5.33,1.74.26,3.46.64,5.19.96h19.81c3.2-.37,6.4-.92,9.61-1.07,31.55-1.41,62.58-6.44,93.36-13.21,1.62-.36,3.51-2.81,3.97-4.62,6.68-26.13,13.24-52.3,19.55-78.53,1.05-4.38,2.54-6.11,7.43-6.03,19.97.34,39.94.14,59.91.14h5.99V0h-259.04ZM316.18,222.05c0,2.26-.34,4.61-.99,6.78-12.14,40.49-24.42,80.93-36.44,121.45-1.43,4.82-3.25,6.73-8.71,6.68-33.83-.32-67.66-.26-101.5-.04-4.54.03-7.2-1.17-8.35-5.51-.17-.62-.55-1.19-.83-1.79-5.51-11.77-5.43-11.69,3.87-21.16,37.08-37.77,74.1-75.6,111.14-113.41.33-.34.58-.76,1.44-1.91-25.86,0-50.92-.08-75.98.16-1.83.02-3.94,2.01-5.4,3.57-29.12,31.22-58.17,62.52-87.23,93.8-1.18,1.27-2.34,2.56-3.51,3.84-.36-.23-.72-.46-1.08-.69,10.01-33.31,20.02-66.63,30.21-100.52h-57.38V9.06h240.53c.08,1.78.24,3.53.24,5.27.01,69.24.02,138.48-.03,207.72ZM432.54,273.26c-1.06,4.53-2.29,9.04-3.73,13.5-.72,2.23-1.48,4.43-2.3,6.62s-1.69,4.34-2.62,6.47c-5.86,13.45-17.54,20-31.5,21.57-13.35,1.49-26.87,1.45-41.24,2.13,1.22-4.63,2.42-9.16,3.59-13.62,3.53-13.38,6.88-26.1,10.24-38.83,1.38-5.24,2.67-10.51,4.31-15.67.19-.6.7-1.34,1.29-1.91.19-.19.4-.35.6-.5.41-.3.83-.49,1.17-.48,1.92.05,3.84.1,5.76.15.1,0,.19,0,.29,0,3.86.09,7.71.17,11.57.27,9.91.25,19.82.62,29.66,1.6,2.66.26,4.94.92,6.84,1.92.47.25.92.52,1.35.81,4.68,3.2,6.37,8.87,4.71,15.97ZM584.23,356.49h-25.59c2.06-7.29,4.1-14.56,6.14-21.8,4.08-14.48,8.14-28.88,12.19-43.25,2.02-7.18,4.05-14.36,6.07-21.54l1.18.13v86.47ZM597.44,209.66c-.47,2.77-2.07,3.52-5.69,3.47-8.25-.12-16.5-.11-24.75-.1-8.25.01-16.5.02-24.75-.1-1-.02-1.86.05-2.59.21-.37.08-.71.19-1.02.32-.47.2-.88.46-1.24.8-.17.16-.33.34-.49.54-.27.35-.52.75-.74,1.22-.26.55-.49,1.18-.69,1.91-3.84,13.54-7.71,27.08-11.58,40.61-8.8,30.74-17.64,61.46-26.35,92.23-.32,1.14-.67,2.1-1.09,2.9-.74,1.4-1.69,2.31-3.1,2.81-.2.07-.41.13-.63.19-.45.11-.95.19-1.49.23-.51.04-1.07.06-1.67.05-8.25-.18-16.5-.21-24.75-.2-8.25.01-16.5.07-24.75.07h-5.19c-.04-.19-.08-.39-.12-.58-.03-.16-.07-.32-.1-.48,1.23-.62,2.43-1.29,3.69-1.85,8.35-3.71,15.72-8.18,22.09-13.41,1.42-1.16,2.79-2.36,4.11-3.6,13.86-12.97,22.36-30.02,25.58-50.91.03-.19.06-.38.08-.57,1.15-7.57,2.07-15.38,1.98-23.04-.03-2.62-.18-5.22-.48-7.79-1.24-10.69-4.96-19.38-11.01-25.88-.4-.43-.82-.86-1.24-1.27-.85-.83-1.74-1.62-2.67-2.37-.46-.37-.94-.74-1.42-1.09-.78-.57-1.6-1.11-2.43-1.63-3.82-2.38-8.19-4.23-13.09-5.49-2.65-.69-5.46-1.2-8.43-1.55-4.28-.5-8.58-.87-12.89-1.15-4.31-.28-8.63-.46-12.95-.6-8.65-.27-17.32-.35-25.96-.55-5.31-.13-10.61-.17-15.95-.17-8.9,0-17.89.1-27.12.1V9.15h240.71c.02.42.05.84.08,1.26.03.44.06.86.09,1.29.05.79.09,1.57.09,2.35,0,16.11,0,32.23,0,48.34,0,48.34,0,96.68.11,145.02,0,.87-.05,1.62-.15,2.26ZM747.67,339.34c-1,4.66-1.84,9.36-3.13,13.94-.38,1.35-2.04,3.32-3.15,3.34-10.86.25-21.72.15-34.03.15,18.19-28.61,35.81-56.32,53.43-84.02.36.22.72.44,1.08.66-4.73,21.98-9.47,43.95-14.2,65.93ZM865.67,287.54c-12.46,19.76-19.44,42.02-22.75,65.29-.2,1.44-2.06,3.74-3.19,3.77-10.68.29-21.37.17-32.96.17,10.15-48.17,20.16-95.67,30.22-143.39-1.61-.11-2.75-.25-3.88-.25-31.35-.01-62.71.04-94.06-.09-3.15-.01-4.62,1.31-6.15,3.72-28.65,45.23-57.43,90.39-86,135.67-2.44,3.87-5.04,5.3-9.63,3.8V9.08h241.51v5.55c0,73.85,0,147.7,0,221.55,0,1.48-.28,2.99-.07,4.44,2.51,17.56-3.7,32.17-13,46.91ZM1020.27,405.99c-1.46,7.69-4.72,10.72-12.59,11.54-18.07,1.86-36.04,4.31-53.98-.62-22.9-6.29-36.28-24.27-36.16-50.65h112.32c-3.34,13.55-7.07,26.53-9.58,39.73ZM1159.91,356.39h-60.69c3.23-13.18,6.37-26.04,9.6-39.24-2.07-.1-3.52-.23-4.98-.23-37.13-.01-74.26.05-111.38-.1-3.83-.02-5.44,1.01-6.27,4.86-2.23,10.28-5.04,20.43-7.42,30.68-.74,3.2-1.97,4.59-5.59,4.54-16.66-.21-33.33-.23-50,0-4.15.06-5.21-1.51-4.85-5.19,1.45-15.04,5.62-29.36,11.6-43.17,7.16-16.54,16.76-31.4,30.87-42.92,17.84-14.56,38.26-20.4,60.99-16.38,16.85,2.98,24.06,12.22,24.44,29.48.02.95.12,1.91.2,3.21,1.84.12,3.43.31,5.03.31,20.63.02,41.25-.07,61.88.09,3.85.03,5.31-1.06,6.09-5.01,3.28-16.68,3.34-32.86-6.59-47.55-8.95-13.23-22.32-20.16-37.19-24.57-21.99-6.51-44.57-6.94-67.18-5.59-24,1.43-47.34,6.3-69.31,16.46-6.71,3.1-13.17,6.74-20.43,10.5-.14-1.75-.37-3.25-.37-4.75-.02-69.23.02-138.46-.1-207.69,0-4.37,1.26-5.53,5.59-5.52,77.06.13,154.12.09,231.19.1,1.46,0,2.92.13,4.88.22v347.46Z"/>
  </g>
</svg>