<?xml version="1.0" encoding="UTF-8"?>
<svg id="SM_Event_Invitation_Grid" data-name="SM Event Invitation Grid" xmlns="http://www.w3.org/2000/svg" viewBox="0 0 821.13 138.44">
  <defs>
    <style>
      .cls-1 {
        fill: #000;
        stroke-width: 0px;
      }
    </style>
  </defs>
  <path class="cls-1" d="M325.75,77.29c7.07,6.48,11.56,15.72,11.59,25.99l.12,35.1-18.37.06-.12-35.1c-.04-9.6-7.68-17.12-17.4-17.12h-89.21c-9.15,0-16.6,6.1-16.6,13.6v38.59h-18.38v-38.59c0-17.63,15.69-31.98,34.97-31.98h89.96c9.53-.03,17.31-7.89,17.31-17.52s-7.44-16.6-16.6-16.6h-125.71V15.35h125.71c19.28,0,34.97,15.69,34.97,34.97,0,10.74-4.76,20.37-12.25,26.96M371.16,50.32h-18.38v88.09h18.38V50.32ZM126.88,138.28c19.29,0,34.99-15.7,34.99-34.98v-1.36c0-19.29-15.7-34.99-34.99-34.99H37.79c-9.16,0-16.61-7.45-16.61-16.61s7.45-16.61,16.61-16.61h124.75V15.35H37.79C18.5,15.35,2.81,31.05,2.81,50.34s15.69,34.98,34.98,34.98h89.1c9.16,0,16.61,7.45,16.61,16.61v1.36c0,9.15-7.45,16.6-16.61,16.6H0v18.38h126.88M369.68,33.73c18.6,0,33.73-15.13,33.73-33.73h-18.38c0,8.47-6.88,15.35-15.35,15.35h-16.95v18.38h16.95M424.28,88.01h5.52v-25.09h-5.52v25.09ZM449.68,88.01h5.45v-15.96l12.15,15.96h4.7v-25.09h-5.45v15.45l-11.75-15.45h-5.09v25.09ZM499.58,88.2h4.87s10.15-25.28,10.15-25.28h-5.95l-6.56,17.67-6.56-17.67h-6.09l10.15,25.28ZM532.06,88.01h19.11v-4.91h-13.62v-5.27h11.83v-4.91h-11.83v-5.09h13.44v-4.91h-18.93v25.09ZM567.95,84.35c3.01,2.69,6.84,4.01,10.64,4.01,5.42,0,9.22-2.79,9.22-7.77v-.08c0-4.37-2.87-6.2-7.95-7.52-4.34-1.11-5.42-1.66-5.42-3.3v-.07c0-1.21,1.11-2.18,3.22-2.18s4.3.93,6.53,2.47l2.87-4.15c-2.55-2.04-5.67-3.19-9.33-3.19-5.12,0-8.78,3.01-8.78,7.57v.07c0,4.98,3.26,6.38,8.32,7.67,4.19,1.07,5.05,1.79,5.05,3.19v.07c0,1.47-1.36,2.37-3.62,2.37-2.87,0-5.23-1.18-7.49-3.05l-3.26,3.91M611.51,88.01h5.52v-20h7.64v-5.09h-20.8v5.09h7.64v20ZM642.49,88.01h5.42v-16.28l6.99,10.61h.14l7.06-10.71v16.38h5.49v-25.09h-5.95l-6.6,10.61-6.59-10.61h-5.95v25.09ZM687.19,88.01h19.11v-4.91h-13.62v-5.27h11.83v-4.92h-11.83s0-5.09,0-5.09h13.44v-4.91h-18.93v25.09ZM724.8,88.01h5.45v-15.96l12.16,15.96h4.69v-25.09h-5.45v15.45l-11.75-15.45h-5.09v25.09ZM772.55,88h5.52v-20h7.64v-5.09h-20.8v5.09h7.64v20ZM801.27,84.35c3.01,2.69,6.85,4.01,10.65,4.01,5.41,0,9.21-2.79,9.21-7.77v-.08c0-4.37-2.86-6.2-7.95-7.52-4.34-1.11-5.42-1.66-5.42-3.3v-.07c0-1.21,1.11-2.18,3.22-2.18s4.3.93,6.53,2.47l2.87-4.15c-2.55-2.04-5.67-3.19-9.33-3.19-5.12,0-8.78,3.01-8.78,7.57v.07c0,4.98,3.26,6.38,8.32,7.67,4.19,1.07,5.05,1.79,5.05,3.19v.07c0,1.47-1.36,2.37-3.62,2.37-2.87,0-5.23-1.18-7.49-3.05l-3.26,3.91M422.92,125.53c0,7.21,5.49,12.91,12.87,12.91,4.84,0,7.71-1.73,10.3-4.49l-3.52-3.55c-1.97,1.79-3.73,2.94-6.6,2.94-4.3,0-7.28-3.59-7.28-7.88v-.07c0-4.3,3.05-7.82,7.28-7.82,2.51,0,4.49,1.08,6.42,2.83l3.52-4.04c-2.33-2.29-5.16-3.88-9.89-3.87-7.71,0-13.09,5.84-13.09,12.98v.07M464.08,138.01h18.03v-5.02h-12.51v-20.07h-5.52v25.09ZM498.75,127.25c0,7.39,4.12,11.15,10.86,11.15s11.01-3.73,11.01-11.33v-14.16h-5.53v14.37c0,3.98-2.04,6.02-5.41,6.02s-5.42-2.11-5.42-6.2v-14.19h-5.52v14.34M539.84,138.01h11.94c5.66,0,9.39-2.29,9.39-6.88v-.07c0-3.37-1.79-5.05-4.7-6.17,1.8-1,3.3-2.58,3.3-5.41v-.07c0-1.72-.58-3.12-1.72-4.27-1.43-1.43-3.7-2.22-6.56-2.22h-11.65v25.09ZM545.22,123.06v-5.31h5.45c2.33,0,3.62.93,3.62,2.58v.07c0,1.87-1.54,2.66-3.98,2.66h-5.09ZM545.22,133.17v-5.52h6.38c2.83,0,4.09,1.03,4.09,2.72v.07c0,1.87-1.47,2.73-3.91,2.73h-6.56Z"/>
</svg>